<svg width="20" height="20" viewBox="0 0 20 20" fill="" xmlns="http://www.w3.org/2000/svg">
<path d="M8.92857 15.7143H11.0714V11.0714H15.7143V8.92857H11.0714V4.28571H8.92857V8.92857H4.28571V11.0714H8.92857V15.7143ZM2.14286 20C1.55357 20 1.04911 19.7902 0.629464 19.3705C0.209821 18.9509 0 18.4464 0 17.8571V2.14286C0 1.55357 0.209821 1.04911 0.629464 0.629465C1.04911 0.209822 1.55357 0 2.14286 0H17.8571C18.4464 0 18.9509 0.209822 19.3705 0.629465C19.7902 1.04911 20 1.55357 20 2.14286V17.8571C20 18.4464 19.7902 18.9509 19.3705 19.3705C18.9509 19.7902 18.4464 20 17.8571 20H2.14286Z" fill="white"/>
</svg>
