<svg width=16 height="16" viewBox="0 0 31 31" fill="none" xmlns="http://www.w3.org/2000/svg">
<path d="M15.0997 0C12.1132 0 9.19387 0.88558 6.71075 2.54475C4.22762 4.20393 2.29226 6.56217 1.1494 9.32127C0.00654244 12.0804 -0.292481 15.1164 0.290143 18.0455C0.872767 20.9745 2.31087 23.665 4.4226 25.7767C6.53432 27.8885 9.22482 29.3266 12.1539 29.9092C15.0829 30.4918 18.119 30.1928 20.8781 29.0499C23.6372 27.9071 25.9954 25.9717 27.6546 23.4886C29.3138 21.0055 30.1993 18.0861 30.1993 15.0997C30.1947 11.0964 28.6024 7.25843 25.7716 4.4277C22.9409 1.59697 19.1029 0.0046269 15.0997 0ZM8.1306 16.8419C7.78601 16.8419 7.44916 16.7398 7.16264 16.5483C6.87613 16.3569 6.65282 16.0848 6.52095 15.7664C6.38908 15.448 6.35458 15.0977 6.4218 14.7598C6.48903 14.4218 6.65496 14.1114 6.89862 13.8677C7.14229 13.624 7.45273 13.4581 7.79069 13.3909C8.12866 13.3236 8.47897 13.3582 8.79733 13.49C9.11569 13.6219 9.3878 13.8452 9.57924 14.1317C9.77068 14.4182 9.87286 14.7551 9.87286 15.0997C9.87284 15.5617 9.68927 16.0049 9.36254 16.3316C9.03581 16.6583 8.59267 16.8419 8.1306 16.8419ZM15.0997 16.8419C14.7551 16.8419 14.4182 16.7398 14.1317 16.5483C13.8452 16.3569 13.6219 16.0848 13.49 15.7664C13.3582 15.448 13.3237 15.0977 13.3909 14.7598C13.4581 14.4218 13.624 14.1114 13.8677 13.8677C14.1114 13.624 14.4218 13.4581 14.7598 13.3909C15.0977 13.3236 15.448 13.3582 15.7664 13.49C16.0848 13.6219 16.3569 13.8452 16.5483 14.1317C16.7398 14.4182 16.8419 14.7551 16.8419 15.0997C16.8419 15.5617 16.6583 16.0049 16.3316 16.3316C16.0049 16.6583 15.5617 16.8419 15.0997 16.8419ZM22.0687 16.8419C21.7242 16.8419 21.3873 16.7398 21.1008 16.5483C20.8143 16.3569 20.591 16.0848 20.4591 15.7664C20.3272 15.448 20.2927 15.0977 20.36 14.7598C20.4272 14.4218 20.5931 14.1114 20.8368 13.8677C21.0804 13.624 21.3909 13.4581 21.7288 13.3909C22.0668 13.3236 22.4171 13.3582 22.7355 13.49C23.0538 13.6219 23.3259 13.8452 23.5174 14.1317C23.7088 14.4182 23.811 14.7551 23.811 15.0997C23.811 15.5617 23.6274 16.0049 23.3007 16.3316C22.974 16.6583 22.5308 16.8419 22.0687 16.8419Z" fill="#007FFF"/>
</svg>
