<svg width="16" height="18" viewBox="0 0 16 18" fill="none" xmlns="http://www.w3.org/2000/svg">
<path d="M1.71429 18C1.24286 18 0.839286 17.832 0.503571 17.4961C0.167857 17.1602 0 16.7656 0 16.3125V3.9375C0 3.48437 0.167857 3.08984 0.503571 2.75391C0.839286 2.41797 1.24286 2.25 1.71429 2.25H3.42857V0H5.14286V2.25H10.8571V0H12.5714V2.25H14.2857C14.7571 2.25 15.1607 2.41797 15.4964 2.75391C15.8321 3.08984 16 3.48437 16 3.9375V16.3125C16 16.7656 15.8321 17.1602 15.4964 17.4961C15.1607 17.832 14.7571 18 14.2857 18H1.71429ZM1.71429 16.3125H14.2857V7.875H1.71429V16.3125Z" fill="white"/>
</svg>
