<svg width="16" height="18" viewBox="0 0 16 18" fill="none" xmlns="http://www.w3.org/2000/svg">
<path d="M2.57143 18C1.85714 18 1.25 17.7539 0.75 17.2617C0.25 16.7695 0 16.1719 0 15.4688V2.53125C0 1.82812 0.25 1.23047 0.75 0.738281C1.25 0.246094 1.85714 0 2.57143 0H12.5714V14.625H2.57143C2.32857 14.625 2.125 14.7054 1.96071 14.8662C1.79643 15.027 1.71429 15.2262 1.71429 15.4638C1.71429 15.7015 1.79643 15.9023 1.96071 16.0664C2.125 16.2305 2.32857 16.3125 2.57143 16.3125H14.2857V1.6875H16V18H2.57143ZM3.09524 10.6875H4.28571L4.90476 8.97656H7.67333L8.28571 10.6875H9.47619L6.89548 3.9375H5.66667L3.09524 10.6875ZM5.2619 7.99219L6.26071 5.17969H6.30952L7.30952 7.99219H5.2619Z" fill="white"/>
</svg>
