<svg width="16" height="16" viewBox="0 0 16 16" fill="none" xmlns="http://www.w3.org/2000/svg">
<path d="M8 8C6.88889 8 5.94444 7.61111 5.16667 6.83333C4.38889 6.05556 4 5.11111 4 4C4 2.88889 4.38889 1.94444 5.16667 1.16667C5.94444 0.388889 6.88889 0 8 0C9.11111 0 10.0556 0.388889 10.8333 1.16667C11.6111 1.94444 12 2.88889 12 4C12 5.11111 11.6111 6.05556 10.8333 6.83333C10.0556 7.61111 9.11111 8 8 8ZM0 16V13.3333C0 12.9074 0.115741 12.5046 0.347222 12.125C0.578704 11.7454 0.898148 11.4259 1.30556 11.1667C2.32407 10.5741 3.40278 10.1204 4.54167 9.80556C5.68056 9.49074 6.83333 9.33333 8 9.33333C9.16667 9.33333 10.3194 9.49074 11.4583 9.80556C12.5972 10.1204 13.6759 10.5741 14.6944 11.1667C15.1019 11.4074 15.4213 11.7222 15.6528 12.1111C15.8843 12.5 16 12.9074 16 13.3333V16H0Z" fill="white"/>
</svg>
