<svg width="16" height="14" viewBox="0 0 16 14" fill="none" xmlns="http://www.w3.org/2000/svg">
<path d="M13 3H3V0H13V3ZM12.7456 7.5C12.9569 7.5 13.1354 7.42854 13.2813 7.28563C13.4271 7.14271 13.5 6.96563 13.5 6.75438C13.5 6.54313 13.4285 6.36458 13.2856 6.21875C13.1427 6.07292 12.9656 6 12.7544 6C12.5431 6 12.3646 6.07146 12.2188 6.21437C12.0729 6.35729 12 6.53438 12 6.74563C12 6.95688 12.0715 7.13542 12.2144 7.28125C12.3573 7.42708 12.5344 7.5 12.7456 7.5ZM11.5 12.5V9.5H4.5V12.5H11.5ZM13 14H3V11H0V6C0 5.44444 0.194444 4.97222 0.583333 4.58333C0.972222 4.19444 1.44444 4 2 4H14C14.5556 4 15.0278 4.19444 15.4167 4.58333C15.8056 4.97222 16 5.44444 16 6V11H13V14Z" fill="white"/>
</svg>
