<svg width="16" height="16" viewBox="0 0 16 16" fill="none" xmlns="http://www.w3.org/2000/svg">
<path d="M6 9.5H10V8H6V9.5ZM6 7H13V5.5H6V7ZM6 4.5H13V3H6V4.5ZM4.5 13C4.0875 13 3.73437 12.8531 3.44062 12.5594C3.14687 12.2656 3 11.9125 3 11.5V1.5C3 1.0875 3.14687 0.734376 3.44062 0.440626C3.73437 0.146876 4.0875 0 4.5 0H14.5C14.9125 0 15.2656 0.146876 15.5594 0.440626C15.8531 0.734376 16 1.0875 16 1.5V11.5C16 11.9125 15.8531 12.2656 15.5594 12.5594C15.2656 12.8531 14.9125 13 14.5 13H4.5ZM1.5 16C1.0875 16 0.734375 15.8531 0.440625 15.5594C0.146875 15.2656 0 14.9125 0 14.5V3H1.5V14.5H13V16H1.5Z" fill="white"/>
</svg>
