<svg width="16" height="16" viewBox="0 0 16 16" fill="none" xmlns="http://www.w3.org/2000/svg">
<path d="M0 16V14.2857H1.71429V1.71429C1.71429 1.24286 1.88214 0.839286 2.21786 0.503572C2.55357 0.167858 2.95714 0 3.42857 0H12.5714C13.0429 0 13.4464 0.167858 13.7821 0.503572C14.1179 0.839286 14.2857 1.24286 14.2857 1.71429V14.2857H16V16H0ZM9.995 8.57143C10.2364 8.57143 10.4405 8.48976 10.6071 8.32643C10.7738 8.1631 10.8571 7.96071 10.8571 7.71929C10.8571 7.47786 10.7755 7.27381 10.6121 7.10714C10.4488 6.94048 10.2464 6.85714 10.005 6.85714C9.76357 6.85714 9.55952 6.93881 9.39286 7.10214C9.22619 7.26548 9.14286 7.46786 9.14286 7.70929C9.14286 7.95071 9.22452 8.15476 9.38786 8.32143C9.55119 8.4881 9.75357 8.57143 9.995 8.57143Z" fill="white"/>
</svg>
