<svg width="16" height="18" viewBox="0 0 16 18" fill="none" xmlns="http://www.w3.org/2000/svg">
<path d="M1.71429 18C1.24286 18 0.839286 17.832 0.503571 17.4961C0.167857 17.1602 0 16.7656 0 16.3125V3.9375C0 3.48437 0.167857 3.08984 0.503571 2.75391C0.839286 2.41797 1.24286 2.25 1.71429 2.25H3.42857V0H5.14286V2.25H10.8571V0H12.5714V2.25H14.2857C14.7571 2.25 15.1607 2.41797 15.4964 2.75391C15.8321 3.08984 16 3.48437 16 3.9375V16.3125C16 16.7656 15.8321 17.1602 15.4964 17.4961C15.1607 17.832 14.7571 18 14.2857 18H1.71429ZM1.71429 16.3125H14.2857V7.875H1.71429V16.3125ZM1.71429 6.1875H14.2857V3.9375H1.71429V6.1875ZM8.005 11.25C7.76357 11.25 7.55952 11.1696 7.39286 11.0088C7.22619 10.848 7.14286 10.6488 7.14286 10.4112C7.14286 10.1735 7.22452 9.97266 7.38786 9.80859C7.55119 9.64453 7.75357 9.5625 7.995 9.5625C8.23643 9.5625 8.44048 9.64289 8.60714 9.80367C8.77381 9.96445 8.85714 10.1637 8.85714 10.4013C8.85714 10.639 8.77548 10.8398 8.61214 11.0039C8.44881 11.168 8.24643 11.25 8.005 11.25ZM4.29071 11.25C4.04929 11.25 3.84524 11.1696 3.67857 11.0088C3.5119 10.848 3.42857 10.6488 3.42857 10.4112C3.42857 10.1735 3.51024 9.97266 3.67357 9.80859C3.83691 9.64453 4.03929 9.5625 4.28071 9.5625C4.52214 9.5625 4.72619 9.64289 4.89286 9.80367C5.05952 9.96445 5.14286 10.1637 5.14286 10.4013C5.14286 10.639 5.06119 10.8398 4.89786 11.0039C4.73452 11.168 4.53214 11.25 4.29071 11.25ZM11.7193 11.25C11.4779 11.25 11.2738 11.1696 11.1071 11.0088C10.9405 10.848 10.8571 10.6488 10.8571 10.4112C10.8571 10.1735 10.9388 9.97266 11.1021 9.80859C11.2655 9.64453 11.4679 9.5625 11.7093 9.5625C11.9507 9.5625 12.1548 9.64289 12.3214 9.80367C12.4881 9.96445 12.5714 10.1637 12.5714 10.4013C12.5714 10.639 12.4898 10.8398 12.3264 11.0039C12.1631 11.168 11.9607 11.25 11.7193 11.25ZM8.005 14.625C7.76357 14.625 7.55952 14.5446 7.39286 14.3838C7.22619 14.223 7.14286 14.0238 7.14286 13.7862C7.14286 13.5485 7.22452 13.3477 7.38786 13.1836C7.55119 13.0195 7.75357 12.9375 7.995 12.9375C8.23643 12.9375 8.44048 13.0179 8.60714 13.1787C8.77381 13.3395 8.85714 13.5387 8.85714 13.7763C8.85714 14.014 8.77548 14.2148 8.61214 14.3789C8.44881 14.543 8.24643 14.625 8.005 14.625ZM4.29071 14.625C4.04929 14.625 3.84524 14.5446 3.67857 14.3838C3.5119 14.223 3.42857 14.0238 3.42857 13.7862C3.42857 13.5485 3.51024 13.3477 3.67357 13.1836C3.83691 13.0195 4.03929 12.9375 4.28071 12.9375C4.52214 12.9375 4.72619 13.0179 4.89286 13.1787C5.05952 13.3395 5.14286 13.5387 5.14286 13.7763C5.14286 14.014 5.06119 14.2148 4.89786 14.3789C4.73452 14.543 4.53214 14.625 4.29071 14.625ZM11.7193 14.625C11.4779 14.625 11.2738 14.5446 11.1071 14.3838C10.9405 14.223 10.8571 14.0238 10.8571 13.7862C10.8571 13.5485 10.9388 13.3477 11.1021 13.1836C11.2655 13.0195 11.4679 12.9375 11.7093 12.9375C11.9507 12.9375 12.1548 13.0179 12.3214 13.1787C12.4881 13.3395 12.5714 13.5387 12.5714 13.7763C12.5714 14.014 12.4898 14.2148 12.3264 14.3789C12.1631 14.543 11.9607 14.625 11.7193 14.625Z" fill="white"/>
</svg>
