<svg width="16" height="16" viewBox="0 0 16 16" fill="none" xmlns="http://www.w3.org/2000/svg">
<path d="M0 16V14.2857H1.71429V1.71429C1.71429 1.24286 1.88214 0.839286 2.21786 0.503572C2.55357 0.167858 2.95714 0 3.42857 0H12.5714C13.0429 0 13.4464 0.167858 13.7821 0.503572C14.1179 0.839286 14.2857 1.24286 14.2857 1.71429V14.2857H16V16H0ZM10.8571 14.2857H12.5714V1.71429H8.59524V0.952381C9.2619 1.06349 9.80556 1.38889 10.2262 1.92857C10.6468 2.46825 10.8571 3.0873 10.8571 3.78571V14.2857ZM7.13786 8.85714C7.37929 8.85714 7.58333 8.77548 7.75 8.61214C7.91667 8.44881 8 8.24643 8 8.005C8 7.76357 7.91833 7.55952 7.755 7.39286C7.59167 7.22619 7.38929 7.14286 7.14786 7.14286C6.90643 7.14286 6.70238 7.22452 6.53571 7.38786C6.36905 7.55119 6.28571 7.75357 6.28571 7.995C6.28571 8.23643 6.36738 8.44048 6.53071 8.60714C6.69405 8.77381 6.89643 8.85714 7.13786 8.85714Z" fill="white"/>
</svg>
