<svg width="16" height="17" viewBox="0 0 16 17" fill="none" xmlns="http://www.w3.org/2000/svg">
<path d="M12 17V14.6094H9.6V13.0156H12V10.625H13.6V13.0156H16V14.6094H13.6V17H12ZM1.6 14.875C1.17037 14.8898 0.796296 14.7348 0.477778 14.4102C0.159259 14.0855 0 13.7092 0 13.2812V3.71875C0 3.28047 0.159259 2.90527 0.477778 2.59316C0.796296 2.28106 1.17037 2.125 1.6 2.125H2.66667V0H4.26667V2.125H8.53333V0H10.1333V2.125H11.2C11.6296 2.125 12.0074 2.27995 12.3333 2.58984C12.6593 2.89974 12.8148 3.27604 12.8 3.71875V8.5C12.5333 8.5 12.2667 8.52214 12 8.56641C11.7333 8.61068 11.4667 8.67708 11.2 8.76562V7.4375H1.6V13.2812H7.51111C7.48148 13.5321 7.47037 13.7904 7.47778 14.056C7.48519 14.3216 7.51852 14.5946 7.57778 14.875H1.6Z" fill="white"/>
</svg>
