<svg width="27" height="28" viewBox="0 0 27 28" fill="none" xmlns="http://www.w3.org/2000/svg">
<path d="M24.8612 5.41699H1.25" stroke="white" stroke-width="2.5" stroke-linecap="round"/>
<path d="M22.546 8.88892L21.9071 18.471C21.6613 22.1584 21.5383 24.0022 20.337 25.1261C19.1356 26.2501 17.2878 26.2501 13.5922 26.2501H12.5182C8.82258 26.2501 6.9748 26.2501 5.7734 25.1261C4.57201 24.0022 4.44909 22.1584 4.20326 18.471L3.56445 8.88892" stroke="white" stroke-width="2.5" stroke-linecap="round"/>
<path d="M9.5835 12.3613L10.2779 19.3058" stroke="white" stroke-width="2.5" stroke-linecap="round"/>
<path d="M16.5279 12.3613L15.8335 19.3058" stroke="white" stroke-width="2.5" stroke-linecap="round"/>
<path d="M5.41602 5.41668C5.49363 5.41668 5.53243 5.41668 5.56761 5.41579C6.71128 5.38681 7.72021 4.65961 8.10938 3.58379C8.12135 3.55069 8.13361 3.51388 8.15815 3.44024L8.293 3.03571C8.40811 2.69039 8.46567 2.51773 8.542 2.37111C8.84658 1.78621 9.4101 1.38006 10.0613 1.27607C10.2245 1.25 10.4066 1.25 10.7706 1.25H15.3392C15.7032 1.25 15.8853 1.25 16.0485 1.27607C16.6998 1.38006 17.2632 1.78621 17.5678 2.37111C17.6442 2.51773 17.7017 2.69039 17.8168 3.03571L17.9517 3.44024C17.9762 3.51379 17.9885 3.55072 18.0005 3.58379C18.3896 4.65961 19.3985 5.38681 20.5423 5.41579C20.5774 5.41668 20.6162 5.41668 20.6938 5.41668" stroke="white" stroke-width="2.5"/>
</svg>
